<?xml version="1.0" encoding="UTF-8" standalone="no"?>
<!-- Created with Inkscape (http://www.inkscape.org/) -->

<svg
   xmlns:dc="http://purl.org/dc/elements/1.1/"
   xmlns:cc="http://creativecommons.org/ns#"
   xmlns:rdf="http://www.w3.org/1999/02/22-rdf-syntax-ns#"
   xmlns:svg="http://www.w3.org/2000/svg"
   xmlns="http://www.w3.org/2000/svg"
   xmlns:sodipodi="http://sodipodi.sourceforge.net/DTD/sodipodi-0.dtd"
   xmlns:inkscape="http://www.inkscape.org/namespaces/inkscape"
   width="70.908333mm"
   height="58.208332mm"
   viewBox="0 0 70.908333 58.208332"
   version="1.1"
   id="svg4617"
   inkscape:version="0.92.5 (2060ec1f9f, 2020-04-08)"
   sodipodi:docname="BSicon_uCANOEmod.svg">
  <defs
     id="defs4611" />
  <sodipodi:namedview
     id="base"
     pagecolor="#ffffff"
     bordercolor="#666666"
     borderopacity="1.0"
     inkscape:pageopacity="0.0"
     inkscape:pageshadow="2"
     inkscape:zoom="0.35"
     inkscape:cx="396.85715"
     inkscape:cy="-344.28571"
     inkscape:document-units="mm"
     inkscape:current-layer="layer1"
     showgrid="false"
     inkscape:window-width="1440"
     inkscape:window-height="839"
     inkscape:window-x="0"
     inkscape:window-y="32"
     inkscape:window-maximized="1" />
  <metadata
     id="metadata4614">
    <rdf:RDF>
      <cc:Work
         rdf:about="">
        <dc:format>image/svg+xml</dc:format>
        <dc:type
           rdf:resource="http://purl.org/dc/dcmitype/StillImage" />
        <dc:title></dc:title>
      </cc:Work>
    </rdf:RDF>
  </metadata>
  <g
     inkscape:label="Layer 1"
     inkscape:groupmode="layer"
     id="layer1"
     transform="translate(-0.83154466,0.4672608)">
    <g
       transform="matrix(0.26458333,0,0,0.26458333,-52.614288,-11.050594)"
       id="g4596">
      <rect
         style="fill:#000000;fill-opacity:1"
         id="boat"
         width="237"
         height="60"
         x="202"
         y="200" />
      <path
         style="fill:#000000;fill-opacity:1"
         id="head"
         d="m 355,70 a 30,30 0 1 1 -60,0 30,30 0 1 1 60,0 z"
         inkscape:connector-curvature="0" />
      <path
         style="fill:#000000;fill-opacity:1"
         id="bow"
         d="m 470,210 a 35,50 0 1 1 -70,0 35,50 0 1 1 70,0 z"
         inkscape:connector-curvature="0" />
      <path
         style="fill:#000000;fill-opacity:1"
         d="m 222,207 59,-104 14,-8 13,2 31,43 10,1 53,-37 17,3 v 16 l -81,48 -23,-15 -36,53 z"
         id="body"
         inkscape:connector-curvature="0" />
    </g>
  </g>
</svg>
